<mxfile host="app.diagrams.net" agent="Mozilla/5.0 (Windows NT 10.0; Win64; x64) AppleWebKit/537.36 (KHTML, like Gecko) Chrome/133.0.0.0 Safari/537.36" version="26.0.16">
  <diagram name="第 1 页" id="qxr8rwR3FGHMAv2gkV_n">
    <mxGraphModel dx="655" dy="928" grid="1" gridSize="10" guides="1" tooltips="1" connect="1" arrows="1" fold="1" page="1" pageScale="1" pageWidth="827" pageHeight="1169" math="0" shadow="0">
      <root>
        <mxCell id="0" />
        <mxCell id="1" parent="0" />
        <mxCell id="ltNcGw3DbdvZMagww6wU-3" style="edgeStyle=orthogonalEdgeStyle;rounded=0;orthogonalLoop=1;jettySize=auto;html=1;fillColor=#d5e8d4;strokeColor=#000000;" edge="1" parent="1" source="VGdH3UC9-iB7ZPibDdx0-2" target="ltNcGw3DbdvZMagww6wU-9">
          <mxGeometry relative="1" as="geometry" />
        </mxCell>
        <mxCell id="VGdH3UC9-iB7ZPibDdx0-2" value="網站主頁面" style="rounded=0;whiteSpace=wrap;html=1;fillColor=#fff2cc;strokeColor=#d6b656;" parent="1" vertex="1">
          <mxGeometry x="414" y="30" width="76" height="60" as="geometry" />
        </mxCell>
        <mxCell id="VGdH3UC9-iB7ZPibDdx0-6" value="新增水族箱" style="rounded=0;whiteSpace=wrap;html=1;fillColor=#f8cecc;strokeColor=#b85450;" parent="1" vertex="1">
          <mxGeometry x="130" y="340" width="76" height="60" as="geometry" />
        </mxCell>
        <mxCell id="VGdH3UC9-iB7ZPibDdx0-33" value="AI聊天&lt;div&gt;(主頁面)&lt;/div&gt;" style="rounded=0;whiteSpace=wrap;html=1;fillColor=#f8cecc;strokeColor=#b85450;" parent="1" vertex="1">
          <mxGeometry x="412" y="450" width="76" height="60" as="geometry" />
        </mxCell>
        <mxCell id="ltNcGw3DbdvZMagww6wU-31" style="edgeStyle=orthogonalEdgeStyle;rounded=0;orthogonalLoop=1;jettySize=auto;html=1;" edge="1" parent="1" target="ltNcGw3DbdvZMagww6wU-18">
          <mxGeometry relative="1" as="geometry">
            <mxPoint x="452.0000000000002" y="280" as="sourcePoint" />
          </mxGeometry>
        </mxCell>
        <mxCell id="ltNcGw3DbdvZMagww6wU-32" style="edgeStyle=orthogonalEdgeStyle;rounded=0;orthogonalLoop=1;jettySize=auto;html=1;" edge="1" parent="1" target="ltNcGw3DbdvZMagww6wU-22">
          <mxGeometry relative="1" as="geometry">
            <mxPoint x="452" y="280" as="sourcePoint" />
            <Array as="points">
              <mxPoint x="452" y="310" />
              <mxPoint x="598" y="310" />
            </Array>
          </mxGeometry>
        </mxCell>
        <mxCell id="ltNcGw3DbdvZMagww6wU-35" style="edgeStyle=orthogonalEdgeStyle;rounded=0;orthogonalLoop=1;jettySize=auto;html=1;" edge="1" parent="1" target="JMmLs8NKi63Y9XhVC6E7-3">
          <mxGeometry relative="1" as="geometry">
            <mxPoint x="452" y="280" as="sourcePoint" />
            <Array as="points">
              <mxPoint x="452" y="310" />
              <mxPoint x="310" y="310" />
            </Array>
          </mxGeometry>
        </mxCell>
        <mxCell id="ltNcGw3DbdvZMagww6wU-36" style="edgeStyle=orthogonalEdgeStyle;rounded=0;orthogonalLoop=1;jettySize=auto;html=1;" edge="1" parent="1" target="VGdH3UC9-iB7ZPibDdx0-6">
          <mxGeometry relative="1" as="geometry">
            <mxPoint x="452" y="280" as="sourcePoint" />
            <Array as="points">
              <mxPoint x="452" y="310" />
              <mxPoint x="168" y="310" />
            </Array>
          </mxGeometry>
        </mxCell>
        <mxCell id="JMmLs8NKi63Y9XhVC6E7-1" value="水族箱&lt;div&gt;管理頁面&lt;/div&gt;" style="rounded=0;whiteSpace=wrap;html=1;fillColor=#fff2cc;strokeColor=#d6b656;" parent="1" vertex="1">
          <mxGeometry x="414" y="230" width="76" height="60" as="geometry" />
        </mxCell>
        <mxCell id="JMmLs8NKi63Y9XhVC6E7-3" value="刪除水族箱" style="rounded=0;whiteSpace=wrap;html=1;fillColor=#f8cecc;strokeColor=#b85450;" parent="1" vertex="1">
          <mxGeometry x="272" y="340" width="76" height="60" as="geometry" />
        </mxCell>
        <mxCell id="ltNcGw3DbdvZMagww6wU-10" style="edgeStyle=orthogonalEdgeStyle;rounded=0;orthogonalLoop=1;jettySize=auto;html=1;" edge="1" parent="1" source="ltNcGw3DbdvZMagww6wU-9" target="JMmLs8NKi63Y9XhVC6E7-1">
          <mxGeometry relative="1" as="geometry" />
        </mxCell>
        <mxCell id="ltNcGw3DbdvZMagww6wU-29" style="edgeStyle=orthogonalEdgeStyle;rounded=0;orthogonalLoop=1;jettySize=auto;html=1;" edge="1" parent="1" source="ltNcGw3DbdvZMagww6wU-9" target="ltNcGw3DbdvZMagww6wU-14">
          <mxGeometry relative="1" as="geometry">
            <Array as="points">
              <mxPoint x="452" y="210" />
              <mxPoint x="310" y="210" />
            </Array>
          </mxGeometry>
        </mxCell>
        <mxCell id="ltNcGw3DbdvZMagww6wU-30" style="edgeStyle=orthogonalEdgeStyle;rounded=0;orthogonalLoop=1;jettySize=auto;html=1;" edge="1" parent="1" source="ltNcGw3DbdvZMagww6wU-9" target="ltNcGw3DbdvZMagww6wU-20">
          <mxGeometry relative="1" as="geometry">
            <Array as="points">
              <mxPoint x="452" y="210" />
              <mxPoint x="598" y="210" />
            </Array>
          </mxGeometry>
        </mxCell>
        <mxCell id="ltNcGw3DbdvZMagww6wU-9" value="登入" style="rounded=0;whiteSpace=wrap;html=1;fillColor=#d5e8d4;strokeColor=#82b366;" vertex="1" parent="1">
          <mxGeometry x="414" y="130" width="76" height="60" as="geometry" />
        </mxCell>
        <mxCell id="ltNcGw3DbdvZMagww6wU-14" value="登出" style="rounded=0;whiteSpace=wrap;html=1;fillColor=#d5e8d4;strokeColor=#82b366;" vertex="1" parent="1">
          <mxGeometry x="272" y="230" width="76" height="60" as="geometry" />
        </mxCell>
        <mxCell id="ltNcGw3DbdvZMagww6wU-46" style="edgeStyle=orthogonalEdgeStyle;rounded=0;orthogonalLoop=1;jettySize=auto;html=1;" edge="1" parent="1" source="ltNcGw3DbdvZMagww6wU-18" target="ltNcGw3DbdvZMagww6wU-42">
          <mxGeometry relative="1" as="geometry">
            <Array as="points">
              <mxPoint x="452" y="430" />
              <mxPoint x="598" y="430" />
            </Array>
          </mxGeometry>
        </mxCell>
        <mxCell id="ltNcGw3DbdvZMagww6wU-47" style="edgeStyle=orthogonalEdgeStyle;rounded=0;orthogonalLoop=1;jettySize=auto;html=1;" edge="1" parent="1" source="ltNcGw3DbdvZMagww6wU-18" target="VGdH3UC9-iB7ZPibDdx0-33">
          <mxGeometry relative="1" as="geometry">
            <Array as="points">
              <mxPoint x="452" y="450" />
              <mxPoint x="452" y="450" />
            </Array>
          </mxGeometry>
        </mxCell>
        <mxCell id="ltNcGw3DbdvZMagww6wU-48" style="edgeStyle=orthogonalEdgeStyle;rounded=0;orthogonalLoop=1;jettySize=auto;html=1;" edge="1" parent="1" source="ltNcGw3DbdvZMagww6wU-18" target="ltNcGw3DbdvZMagww6wU-25">
          <mxGeometry relative="1" as="geometry">
            <Array as="points">
              <mxPoint x="452" y="430" />
              <mxPoint x="310" y="430" />
            </Array>
          </mxGeometry>
        </mxCell>
        <mxCell id="ltNcGw3DbdvZMagww6wU-18" value="選擇水族箱&lt;div&gt;管理&lt;/div&gt;" style="rounded=0;whiteSpace=wrap;html=1;fillColor=#f8cecc;strokeColor=#b85450;" vertex="1" parent="1">
          <mxGeometry x="414" y="340" width="76" height="60" as="geometry" />
        </mxCell>
        <mxCell id="ltNcGw3DbdvZMagww6wU-20" value="修改帳號名稱" style="rounded=0;whiteSpace=wrap;html=1;fillColor=#f8cecc;strokeColor=#b85450;" vertex="1" parent="1">
          <mxGeometry x="560" y="230" width="76" height="60" as="geometry" />
        </mxCell>
        <mxCell id="ltNcGw3DbdvZMagww6wU-22" value="修改水族箱&lt;div&gt;名稱/設定&lt;/div&gt;" style="rounded=0;whiteSpace=wrap;html=1;fillColor=#f8cecc;strokeColor=#b85450;" vertex="1" parent="1">
          <mxGeometry x="560" y="340" width="76" height="60" as="geometry" />
        </mxCell>
        <mxCell id="ltNcGw3DbdvZMagww6wU-54" value="" style="edgeStyle=orthogonalEdgeStyle;rounded=0;orthogonalLoop=1;jettySize=auto;html=1;" edge="1" parent="1" source="ltNcGw3DbdvZMagww6wU-25" target="ltNcGw3DbdvZMagww6wU-27">
          <mxGeometry relative="1" as="geometry">
            <Array as="points">
              <mxPoint x="308" y="540" />
              <mxPoint x="384" y="540" />
            </Array>
          </mxGeometry>
        </mxCell>
        <mxCell id="ltNcGw3DbdvZMagww6wU-56" style="edgeStyle=orthogonalEdgeStyle;rounded=0;orthogonalLoop=1;jettySize=auto;html=1;" edge="1" parent="1" source="ltNcGw3DbdvZMagww6wU-25" target="ltNcGw3DbdvZMagww6wU-55">
          <mxGeometry relative="1" as="geometry">
            <Array as="points">
              <mxPoint x="308" y="540" />
              <mxPoint x="232" y="540" />
            </Array>
          </mxGeometry>
        </mxCell>
        <mxCell id="ltNcGw3DbdvZMagww6wU-25" value="主動餵食頁面" style="rounded=0;whiteSpace=wrap;html=1;fillColor=#f8cecc;strokeColor=#b85450;" vertex="1" parent="1">
          <mxGeometry x="270" y="450" width="76" height="60" as="geometry" />
        </mxCell>
        <mxCell id="ltNcGw3DbdvZMagww6wU-27" value="自動餵食時間設定" style="rounded=0;whiteSpace=wrap;html=1;fillColor=#f8cecc;strokeColor=#b85450;" vertex="1" parent="1">
          <mxGeometry x="346" y="560" width="76" height="60" as="geometry" />
        </mxCell>
        <mxCell id="ltNcGw3DbdvZMagww6wU-51" value="" style="edgeStyle=orthogonalEdgeStyle;rounded=0;orthogonalLoop=1;jettySize=auto;html=1;" edge="1" parent="1" source="ltNcGw3DbdvZMagww6wU-42" target="ltNcGw3DbdvZMagww6wU-50">
          <mxGeometry relative="1" as="geometry">
            <Array as="points">
              <mxPoint x="596" y="540" />
              <mxPoint x="526" y="540" />
            </Array>
          </mxGeometry>
        </mxCell>
        <mxCell id="ltNcGw3DbdvZMagww6wU-53" style="edgeStyle=orthogonalEdgeStyle;rounded=0;orthogonalLoop=1;jettySize=auto;html=1;" edge="1" parent="1" source="ltNcGw3DbdvZMagww6wU-42" target="ltNcGw3DbdvZMagww6wU-52">
          <mxGeometry relative="1" as="geometry">
            <Array as="points">
              <mxPoint x="596" y="540" />
              <mxPoint x="672" y="540" />
            </Array>
          </mxGeometry>
        </mxCell>
        <mxCell id="ltNcGw3DbdvZMagww6wU-42" value="即時拍照" style="rounded=0;whiteSpace=wrap;html=1;fillColor=#f8cecc;strokeColor=#b85450;" vertex="1" parent="1">
          <mxGeometry x="558" y="450" width="76" height="60" as="geometry" />
        </mxCell>
        <mxCell id="ltNcGw3DbdvZMagww6wU-50" value="查詢相片" style="rounded=0;whiteSpace=wrap;html=1;fillColor=#f8cecc;strokeColor=#b85450;" vertex="1" parent="1">
          <mxGeometry x="488" y="560" width="76" height="60" as="geometry" />
        </mxCell>
        <mxCell id="ltNcGw3DbdvZMagww6wU-52" value="刪除相片" style="rounded=0;whiteSpace=wrap;html=1;fillColor=#f8cecc;strokeColor=#b85450;" vertex="1" parent="1">
          <mxGeometry x="634" y="560" width="76" height="60" as="geometry" />
        </mxCell>
        <mxCell id="ltNcGw3DbdvZMagww6wU-55" value="查詢餵食&lt;div&gt;歷史紀錄&lt;/div&gt;" style="rounded=0;whiteSpace=wrap;html=1;fillColor=#f8cecc;strokeColor=#b85450;" vertex="1" parent="1">
          <mxGeometry x="194" y="560" width="76" height="60" as="geometry" />
        </mxCell>
      </root>
    </mxGraphModel>
  </diagram>
</mxfile>
